<svg width="37" height="33" viewBox="0 0 37 33" fill="none" xmlns="http://www.w3.org/2000/svg">
<path d="M10.6667 0.833252H6.75L0.875 20.4166M0.875 20.4166V25.3124C0.875 27.1303 1.59713 28.8736 2.88254 30.159C4.16794 31.4445 5.91133 32.1666 7.72917 32.1666C9.547 32.1666 11.2904 31.4445 12.5758 30.159C13.8612 28.8736 14.5833 27.1303 14.5833 25.3124V20.4166H0.875ZM26.3333 0.833252H30.25L36.125 20.4166M36.125 20.4166H22.4167V25.3124C22.4167 27.1303 23.1388 28.8736 24.4242 30.159C25.7096 31.4445 27.453 32.1666 29.2708 32.1666C31.0887 32.1666 32.8321 31.4445 34.1175 30.159C35.4029 28.8736 36.125 27.1303 36.125 25.3124V20.4166ZM14.5833 24.3333H22.4167" stroke="#32B4B4" stroke-width="1.25" stroke-linecap="round" stroke-linejoin="round"/>
</svg>
