<svg width="34" height="34" viewBox="0 0 34 34" fill="none" xmlns="http://www.w3.org/2000/svg">
<path d="M6.95834 20.9166C4.92017 22.0672 3.27208 23.8004 2.22535 25.8938C1.17863 27.9873 0.780963 30.3456 1.08334 32.6666C3.40427 32.969 5.76263 32.5713 7.85608 31.5246C9.94953 30.4778 11.6827 28.8298 12.8333 26.7916M1.08334 18.9583C4.57523 19.3732 7.82597 20.9509 10.3125 23.4374C12.799 25.9239 14.3767 29.1747 14.7917 32.6666C16.5227 31.6686 17.9706 30.2457 18.9986 28.5324C20.0266 26.8191 20.6007 24.8719 20.6667 22.8749C23.9549 21.7182 26.8263 19.6123 28.9178 16.8237C31.0093 14.0351 32.2269 10.6889 32.4167 7.20825C32.4167 5.6501 31.7977 4.15578 30.6959 3.054C29.5941 1.95222 28.0998 1.33325 26.5417 1.33325C23.0611 1.52303 19.7149 2.74064 16.9262 4.83211C14.1376 6.92358 12.0318 9.79499 10.875 13.0833C8.87802 13.1492 6.93084 13.7233 5.21751 14.7513C3.50417 15.7793 2.08129 17.2272 1.08334 18.9583ZM24.5833 11.1249C24.5833 12.2065 23.7066 13.0833 22.625 13.0833C21.5434 13.0833 20.6667 12.2065 20.6667 11.1249C20.6667 10.0434 21.5434 9.16658 22.625 9.16658C23.7066 9.16658 24.5833 10.0434 24.5833 11.1249Z" stroke="#32B4B4" stroke-width="1.25" stroke-linecap="round" stroke-linejoin="round"/>
</svg>
