<svg width="37" height="38" viewBox="0 0 37 38" fill="none" xmlns="http://www.w3.org/2000/svg">
<path d="M6.5 36.625H18.25M12.375 36.625V1.375M12.375 1.375L0.625 13.125H35.875M12.375 1.375L31.9583 13.125M28.0417 13.125V20.9583C28.8163 20.9583 29.5736 21.188 30.2177 21.6184C30.8617 22.0488 31.3638 22.6605 31.6602 23.3762C31.9566 24.0918 32.0342 24.8793 31.8831 25.6391C31.732 26.3989 31.3589 27.0967 30.8112 27.6445C30.2634 28.1923 29.5655 28.5653 28.8058 28.7164C28.046 28.8675 27.2585 28.79 26.5428 28.4935C25.8271 28.1971 25.2154 27.6951 24.7851 27.051C24.3547 26.4069 24.125 25.6496 24.125 24.875" stroke="#32B4B4" stroke-width="1.25" stroke-linecap="round" stroke-linejoin="round"/>
</svg>
