<svg width="38" height="38" viewBox="0 0 38 38" fill="none" xmlns="http://www.w3.org/2000/svg">
<path d="M15.7198 3.95413C16.554 0.515292 21.446 0.515292 22.2802 3.95413C22.4054 4.47073 22.6508 4.95048 22.9964 5.35433C23.342 5.75818 23.7781 6.07471 24.2692 6.27817C24.7603 6.48162 25.2924 6.56625 25.8224 6.52516C26.3524 6.48407 26.8652 6.31843 27.319 6.04171C30.3407 4.20087 33.8011 7.65929 31.9603 10.683C31.6839 11.1366 31.5185 11.6491 31.4776 12.1787C31.4366 12.7083 31.5211 13.2401 31.7243 13.7309C31.9275 14.2216 32.2437 14.6575 32.6471 15.0031C33.0505 15.3487 33.5297 15.5943 34.0459 15.7198C37.4847 16.554 37.4847 21.446 34.0459 22.2802C33.5293 22.4054 33.0495 22.6508 32.6457 22.9964C32.2418 23.342 31.9253 23.7781 31.7218 24.2692C31.5184 24.7603 31.4337 25.2924 31.4748 25.8224C31.5159 26.3524 31.6816 26.8652 31.9583 27.319C33.7991 30.3407 30.3407 33.8011 27.317 31.9603C26.8634 31.6839 26.3509 31.5185 25.8213 31.4776C25.2917 31.4366 24.7599 31.5211 24.2691 31.7243C23.7784 31.9275 23.3425 32.2437 22.9969 32.6471C22.6513 33.0505 22.4057 33.5297 22.2802 34.0459C21.446 37.4847 16.554 37.4847 15.7198 34.0459C15.5946 33.5293 15.3492 33.0495 15.0036 32.6457C14.658 32.2418 14.2219 31.9253 13.7308 31.7218C13.2397 31.5184 12.7076 31.4337 12.1776 31.4748C11.6476 31.5159 11.1348 31.6816 10.681 31.9583C7.65929 33.7991 4.19892 30.3407 6.03975 27.317C6.31607 26.8634 6.48145 26.3509 6.52245 25.8213C6.56344 25.2917 6.47889 24.7599 6.27567 24.2691C6.07246 23.7784 5.7563 23.3425 5.35291 22.9969C4.94952 22.6513 4.47027 22.4057 3.95413 22.2802C0.515292 21.446 0.515292 16.554 3.95413 15.7198C4.47073 15.5946 4.95048 15.3492 5.35433 15.0036C5.75818 14.658 6.07471 14.2219 6.27817 13.7308C6.48162 13.2397 6.56625 12.7076 6.52516 12.1776C6.48407 11.6476 6.31843 11.1348 6.04171 10.681C4.20087 7.65929 7.65929 4.19892 10.683 6.03975C12.6413 7.23042 15.1793 6.17683 15.7198 3.95413Z" stroke="#32B4B4" stroke-width="1.25" stroke-linecap="round" stroke-linejoin="round"/>
<path d="M19 24.875C22.2447 24.875 24.875 22.2447 24.875 19C24.875 15.7553 22.2447 13.125 19 13.125C15.7553 13.125 13.125 15.7553 13.125 19C13.125 22.2447 15.7553 24.875 19 24.875Z" stroke="#32B4B4" stroke-width="1.25" stroke-linecap="round" stroke-linejoin="round"/>
</svg>
